PathFileType	4	(X/Y/Z)	 s04c0401.trc
DataRate	CameraRate	NumFrames	NumMarkers	Units	OrigDataRate	OrigDataStartFrame	OrigNumFrames
200	200	4	50	mm	200	751	2000
Frame#	Time	racr			lacr			c7			jug			rlel			rdr			llel			ldr			s2			lic			ric			lasi			rasi			rpsi			lpsi			rgt			lgt			rth1			rth2			rth3			rth4			rlfc			rmfc			rsh1			rsh2			rsh3			rsh4			rlmal			rmmal			rcal			rtoe			rmt5			lth1			lth2			lth4			lth3			llfc			lmfc			lsh1			lsh2			lsh3			lsh4			llmal			lmmal			lcal			ltoe			lmt5			SBIKE			LBIKE			RBIKE			
		X1	Y1	Z1	X2	Y2	Z2	X3	Y3	Z3	X4	Y4	Z4	X5	Y5	Z5	X6	Y6	Z6	X7	Y7	Z7	X8	Y8	Z8	X9	Y9	Z9	X10	Y10	Z10	X11	Y11	Z11	X12	Y12	Z12	X13	Y13	Z13	X14	Y14	Z14	X15	Y15	Z15	X16	Y16	Z16	X17	Y17	Z17	X18	Y18	Z18	X19	Y19	Z19	X20	Y20	Z20	X21	Y21	Z21	X22	Y22	Z22	X23	Y23	Z23	X24	Y24	Z24	X25	Y25	Z25	X26	Y26	Z26	X27	Y27	Z27	X28	Y28	Z28	X29	Y29	Z29	X30	Y30	Z30	X31	Y31	Z31	X32	Y32	Z32	X33	Y33	Z33	X34	Y34	Z34	X35	Y35	Z35	X36	Y36	Z36	X37	Y37	Z37	X38	Y38	Z38	X39	Y39	Z39	X40	Y40	Z40	X41	Y41	Z41	X42	Y42	Z42	X43	Y43	Z43	X44	Y44	Z44	X45	Y45	Z45	X46	Y46	Z46	X47	Y47	Z47	X48	Y48	Z48	X49	Y49	Z49	X50	Y50	Z50	
751	3.7550	834.894126	1293.984197	-78.952721	843.283204	1285.403678	-407.246823	858.484879	1379.373787	-243.015688	806.504600	1229.703947	-251.038704	555.616811	1163.296072	53.962771	698.054025	945.286734	-53.130722	606.580380	1175.857784	-561.453204	700.339865	945.794173	-461.268388	257.745402	1283.753099	-265.554736	417.857636	1264.550395	-414.892551	399.512145	1255.676750	-90.998787	448.292730	1207.220242	-373.988701	429.968249	1192.458264	-134.787775	293.286304	1320.601545	-218.638582	296.138268	1324.358057	-294.210436	336.562757	1200.007580	-83.860573	368.826764	1169.789640	-442.435198	382.612282	1038.835051	-67.794925	419.608141	959.874058	-82.385165	415.909448	875.431584	-90.136778	452.957045	968.997738	-96.402769	437.773713	731.688055	-118.147825	404.279197	714.465687	-227.175367	383.231957	615.484114	-88.003720	372.537122	526.062456	-102.923233	319.201836	458.581341	-105.927818	402.653156	518.581132	-127.543020	273.263680	312.254173	-109.074397	292.378324	316.437586	-194.204672	202.576699	310.249318	-140.171288	473.536697	175.145224	-157.931690	407.340815	179.439126	-97.113998	411.701464	1089.036700	-449.704088	477.679307	1031.822824	-444.337227	504.087704	1050.652655	-429.950834	507.437607	948.159189	-449.312410	559.110304	808.097990	-425.429986	562.854752	773.813208	-315.487272	471.194027	733.019434	-456.623783	404.977006	680.224093	-435.596448	318.514453	660.421096	-440.095040	417.882893	659.670104	-404.589654	184.073553	598.130033	-442.773546	176.707022	603.467385	-356.320938	123.024079	653.780919	-406.254413	248.210004	376.537442	-392.552099	189.238844	422.362400	-460.452277	-176.671017	938.857960	-277.751322	-3.019537	86.402652	-484.611966	-14.964198	80.531189	-84.083570	
752	3.7600	834.726408	1296.197607	-80.744935	845.811368	1283.741827	-408.467975	858.573692	1379.724442	-245.548986	808.496521	1229.305176	-251.992844	556.416896	1164.018989	52.166365	698.472868	944.883055	-53.314136	608.522949	1174.839912	-563.070013	700.629007	945.632738	-461.576458	257.991564	1282.031111	-262.957762	416.523374	1265.009506	-414.522564	401.605396	1252.149115	-90.562563	447.403134	1207.237357	-374.504269	431.283877	1189.376275	-135.518725	294.634246	1318.931017	-215.735380	295.836212	1322.921433	-291.454850	338.307633	1196.576347	-83.378063	367.417106	1169.469119	-441.702203	380.631309	1035.168815	-66.957786	415.268841	955.173046	-81.536468	409.012829	870.829351	-89.107262	448.557406	963.373155	-95.442832	427.069254	726.593999	-117.017219	393.865545	709.316908	-226.061265	373.198001	610.242881	-86.721592	363.092386	520.719109	-101.643439	310.308381	452.926015	-104.692213	393.215334	513.469600	-126.078224	265.655955	306.005403	-107.896534	284.425917	310.624723	-193.039150	195.309780	304.793149	-138.796076	464.950808	167.210306	-158.640519	399.113433	171.792388	-97.391521	413.150478	1090.428100	-448.555503	481.064844	1034.697510	-442.834725	506.391907	1054.066665	-429.118319	512.558924	951.990750	-448.860626	566.941952	812.501442	-424.393936	570.164773	778.405778	-314.571774	479.057992	737.924168	-455.607883	412.648714	685.439681	-434.589873	325.785329	666.293642	-439.315045	425.045527	665.009186	-403.569306	191.122593	604.789367	-442.058040	183.557668	610.152571	-356.169713	129.380818	660.248180	-405.649282	257.321373	384.352576	-392.262020	197.955101	429.621359	-460.180539	-176.722762	938.832981	-277.822857	-3.024050	86.192317	-484.478065	-14.958488	80.502564	-84.084210	
753	3.7650	834.593540	1298.508283	-82.735040	848.300438	1281.886166	-409.598928	858.739764	1380.019301	-248.317469	810.461120	1228.923170	-253.027477	557.336597	1164.732865	50.396693	699.140979	944.520353	-53.511201	610.322234	1173.955299	-564.690484	700.853584	945.620412	-461.941649	258.424100	1279.861969	-260.245026	414.815699	1265.364358	-414.063645	404.073670	1248.710904	-90.119816	446.596041	1207.647899	-374.766909	432.998722	1186.181964	-135.906882	295.603442	1316.023674	-213.346160	295.955799	1321.925585	-286.759806	340.070666	1193.185011	-82.871362	366.291619	1169.636705	-441.062630	378.537670	1031.799685	-65.923821	410.730517	950.816865	-80.518410	401.936896	866.619321	-87.242306	444.198319	958.094737	-94.797128	416.272868	721.888310	-115.632255	383.274162	704.651980	-224.842971	363.076268	605.561125	-85.353835	353.589215	515.975305	-100.343467	301.259862	447.810788	-103.526155	383.820803	508.894439	-124.726495	257.756059	300.375884	-107.045397	276.286240	305.383727	-192.120479	187.707856	300.082102	-137.655103	455.765890	160.213268	-158.692275	390.387291	164.630928	-98.126562	414.980291	1092.050968	-446.630692	483.674762	1038.307791	-442.719138	509.537170	1058.176497	-427.623017	517.499316	956.206315	-448.392960	574.444035	817.449948	-423.635762	577.281824	783.344438	-314.077869	486.892916	743.026401	-454.629893	419.955490	690.902228	-433.774601	333.324169	671.877889	-438.539334	432.463419	670.384276	-402.520560	198.510685	611.007458	-441.333989	190.585047	616.839349	-354.941585	136.439456	666.110346	-404.990673	266.898744	391.702658	-391.921500	207.245893	436.331940	-459.900393	-176.842553	938.748549	-277.791043	-3.030173	86.136798	-484.513592	-14.970727	80.503232	-84.096788	
754	3.7700	834.471311	1300.656789	-84.796890	850.751517	1279.969081	-410.690656	858.820724	1380.166823	-251.178441	812.470167	1228.397162	-254.098478	558.057837	1165.281364	48.448473	699.964794	944.048261	-53.757421	611.933147	1173.357820	-566.449608	701.053127	945.749229	-462.341670	258.779682	1277.858528	-257.746295	413.397837	1265.669339	-413.739273	406.652171	1245.396478	-89.730964	445.733798	1207.896058	-375.365767	435.235766	1182.559720	-135.318233	298.261749	1312.302238	-212.995063	295.883676	1320.061040	-284.560734	341.777793	1189.917858	-82.294326	365.573391	1170.411553	-440.532334	376.312111	1028.733275	-64.846003	406.142733	946.897378	-79.304589	394.708509	862.909602	-86.151186	439.760317	953.147817	-93.832468	405.506969	717.704020	-114.157958	372.790096	700.547022	-223.159375	353.130278	601.336048	-83.981109	344.105401	511.788872	-99.077743	292.089819	443.252752	-102.442741	373.153871	504.546410	-124.186238	249.453820	295.491888	-106.285128	268.015634	300.573025	-191.303140	179.871884	295.935885	-136.639144	446.479639	153.493695	-159.492487	381.430301	158.341544	-98.581978	416.693998	1093.942623	-444.865834	486.452065	1042.153830	-442.406867	512.057918	1062.418730	-426.960690	522.204422	960.694686	-447.941910	581.769873	822.899307	-423.151497	585.348482	788.359349	-312.819445	494.884436	748.218681	-453.607900	427.845931	696.125683	-432.790451	341.130909	677.248905	-437.769052	439.707348	675.694625	-401.663842	206.234699	616.799339	-440.576567	198.442015	622.619907	-354.286288	143.151695	671.395419	-404.385325	276.841750	398.357560	-391.619171	217.404941	442.607311	-460.102878	-176.830581	938.677765	-278.128773	-3.049628	86.104579	-484.520605	-14.964684	80.508899	-84.099698	
